<svg width="28" height="29" viewBox="0 0 28 29" fill="none" xmlns="http://www.w3.org/2000/svg">
<path d="M1.00012 4.5H26.2001M1.00012 10.1H26.2001M15.0001 15.7H26.2001M15.0001 21.3H26.2001M11.3002 19.2C11.3002 16.5264 11.3002 15.1897 10.55 14.5602C10.3624 14.4028 10.1486 14.2793 9.91841 14.1956C8.99822 13.8606 7.84054 14.529 5.52517 15.8658C3.2098 17.2026 2.05212 17.871 1.88208 18.8353C1.83954 19.0766 1.83954 19.3234 1.88208 19.5647C2.05212 20.529 3.2098 21.1974 5.52517 22.5342C7.84054 23.871 8.99822 24.5394 9.91841 24.2044C10.1486 24.1207 10.3624 23.9972 10.55 23.8398C11.3002 23.2103 11.3002 21.8736 11.3002 19.2Z" stroke="#1C274C" stroke-width="1.5" stroke-linecap="round"/>
</svg>
