<svg width="38" height="43" viewBox="0 0 38 43" fill="none" xmlns="http://www.w3.org/2000/svg">
<path fill-rule="evenodd" clip-rule="evenodd" d="M36.6255 10.4694L19.7012 0.663237C19.485 0.536725 19.2433 0.474976 19.003 0.474976C18.7643 0.474976 18.5211 0.536725 18.3049 0.663237L1.37761 10.4694C0.945199 10.7194 0.679443 11.1833 0.679443 11.6863V31.3137C0.679443 31.8168 0.948202 32.2807 1.37761 32.5307L18.3019 42.3368C18.5181 42.4634 18.7613 42.5251 19 42.5251C19.2388 42.5251 19.482 42.4634 19.6982 42.3368L36.6225 32.5307C37.0564 32.2807 37.3206 31.8168 37.3206 31.3137V11.6863C37.3206 11.1833 37.0519 10.7194 36.6225 10.4694H36.6255ZM32.8599 29.5379V29.5419V29.5473L28.4206 32.1079L28.2479 37.3758L23.1633 35.1403L18.9155 37.5905L4.96974 29.55V13.4528L18.9155 5.40957L32.8599 13.4528V29.5379Z" fill="#441CAB"/>
<path fill-rule="evenodd" clip-rule="evenodd" d="M13.343 21.4618C13.343 22.5082 12.4947 23.3564 11.4483 23.3564C10.402 23.3564 9.55371 22.5082 9.55371 21.4618C9.55371 20.4154 10.402 19.5671 11.4483 19.5671C12.4947 19.5671 13.343 20.4154 13.343 21.4618ZM20.0492 21.4618C20.0492 22.5082 19.2009 23.3564 18.1545 23.3564C17.1081 23.3564 16.2599 22.5082 16.2599 21.4618C16.2599 20.4154 17.1081 19.5671 18.1545 19.5671C19.2009 19.5671 20.0492 20.4154 20.0492 21.4618ZM24.8581 23.3564C25.9045 23.3564 26.7528 22.5082 26.7528 21.4618C26.7528 20.4154 25.9045 19.5671 24.8581 19.5671C23.8118 19.5671 22.9635 20.4154 22.9635 21.4618C22.9635 22.5082 23.8118 23.3564 24.8581 23.3564Z" fill="url(#paint0_linear_149_660)"/>
<defs>
<linearGradient id="paint0_linear_149_660" x1="9.55371" y1="22.482" x2="15.46" y2="12.7286" gradientUnits="userSpaceOnUse">
<stop stop-color="#441CAB"/>
<stop offset="0.7908" stop-color="#F60BFF"/>
</linearGradient>
</defs>
</svg>
